/* XPM */
static const char * sagscl_xpm[] = {
"32 32 164 2",
"  	c None",
". 	c #545454",
"+ 	c #707070",
"@ 	c #6E6E6E",
"# 	c #525252",
"$ 	c #DCDCDC",
"% 	c #F6F6F6",
"& 	c #F4F4F4",
"* 	c #EDEDED",
"= 	c #BCBCBC",
"- 	c #444444",
"; 	c #DADADA",
"> 	c #F0F0F0",
", 	c #F2F2F2",
"' 	c #F1F1F1",
") 	c #838383",
"! 	c #242424",
"~ 	c #8D8D8D",
"{ 	c #D3D3D3",
"] 	c #DEDEDE",
"^ 	c #F5F5F5",
"/ 	c #EFEFEF",
"( 	c #080808",
"_ 	c #000000",
": 	c #818181",
"< 	c #C8C8C8",
"[ 	c #E2E2E2",
"} 	c #C9C9C9",
"| 	c #A6A6A6",
"1 	c #505050",
"2 	c #070707",
"3 	c #543229",
"4 	c #9D9D9D",
"5 	c #C3C3C3",
"6 	c #9C9C9C",
"7 	c #5D5D5D",
"8 	c #030303",
"9 	c #8C594D",
"0 	c #9F9F9F",
"a 	c #DBDBDB",
"b 	c #D1D1D1",
"c 	c #686868",
"d 	c #2F1B16",
"e 	c #A1A1A1",
"f 	c #D9D9D9",
"g 	c #D5D5D5",
"h 	c #B1B1B1",
"i 	c #E4E4E4",
"j 	c #A2A2A2",
"k 	c #A4A4A4",
"l 	c #9E9E9E",
"m 	c #4F4F4F",
"n 	c #DDDDDD",
"o 	c #D2D2D2",
"p 	c #CCCCCC",
"q 	c #373737",
"r 	c #7D7D7D",
"s 	c #F9F9F9",
"t 	c #B6B6B6",
"u 	c #575757",
"v 	c #4C3832",
"w 	c #5B3E37",
"x 	c #503A35",
"y 	c #D0D0D0",
"z 	c #8C8C8C",
"A 	c #D4D4D4",
"B 	c #ECECEC",
"C 	c #E5E5E5",
"D 	c #B3B3B3",
"E 	c #616161",
"F 	c #272727",
"G 	c #4C4C4C",
"H 	c #52342D",
"I 	c #B45944",
"J 	c #C14D33",
"K 	c #BF5F4A",
"L 	c #987972",
"M 	c #FBFBFB",
"N 	c #B2B2B2",
"O 	c #B4B4B4",
"P 	c #ACACAC",
"Q 	c #8B8B8B",
"R 	c #E8E8E8",
"S 	c #DFDFDF",
"T 	c #6A6A6A",
"U 	c #222222",
"V 	c #787878",
"W 	c #BBBBBB",
"X 	c #60413A",
"Y 	c #BF7564",
"Z 	c #B95A44",
"` 	c #AA6150",
" .	c #876E69",
"..	c #D6D6D6",
"+.	c #626262",
"@.	c #434343",
"#.	c #3E3E3E",
"$.	c #8E8E8E",
"%.	c #BABABA",
"&.	c #C2C2C2",
"*.	c #E0E0E0",
"=.	c #EEEEEE",
"-.	c #AFAFAF",
";.	c #F3F3F3",
">.	c #766C69",
",.	c #7C5A52",
"'.	c #6C2E1F",
").	c #663428",
"!.	c #A3A09F",
"~.	c #FAFAFA",
"{.	c #ABABAB",
"].	c #E3E3E3",
"^.	c #BEBEBE",
"/.	c #CACACA",
"(.	c #F7F7F7",
"_.	c #B7B7B7",
":.	c #B8B8B8",
"<.	c #F8F8F8",
"[.	c #E9E9E9",
"}.	c #E6E6E6",
"|.	c #C7C7C7",
"1.	c #C0C0C0",
"2.	c #CDCDCD",
"3.	c #BFBFBF",
"4.	c #C5C5C5",
"5.	c #ADADAD",
"6.	c #B0B0B0",
"7.	c #B5B5B5",
"8.	c #C1C1C1",
"9.	c #BDBDBD",
"0.	c #A9A9A9",
"a.	c #A7A7A7",
"b.	c #AAAAAA",
"c.	c #C6C6C6",
"d.	c #9B9B9B",
"e.	c #3F3F3F",
"f.	c #898989",
"g.	c #EAEAEA",
"h.	c #9A9A9A",
"i.	c #717171",
"j.	c #3A3A3A",
"k.	c #1E1E1E",
"l.	c #0D0D0D",
"m.	c #454545",
"n.	c #959595",
"o.	c #CBCBCB",
"p.	c #CECECE",
"q.	c #A8A8A8",
"r.	c #090909",
"s.	c #1F1F1F",
"t.	c #6B6B6B",
"u.	c #E7E7E7",
"v.	c #A5A5A5",
"w.	c #393939",
"x.	c #101010",
"y.	c #141414",
"z.	c #D8D8D8",
"A.	c #171717",
"B.	c #313131",
"C.	c #CFCFCF",
"D.	c #939393",
"E.	c #6F6F6F",
"F.	c #3C3C3C",
"G.	c #161616",
"                        . + @                                   ",
"                    # $ % & * = #                               ",
"                    - ; > & , ' ' )                             ",
"                    ! ~ { ] ^ , ^ / (                           ",
"                      _ : < [ ' } | 1                           ",
"                      2 3 4 $ 5 6 6 7                           ",
"                      8 9 0 a b 6 6 c                           ",
"                        d e f g 6 6 c                           ",
"                          e ; ; 6 6 c                           ",
"                          h ; i 6 6 c                           ",
"                          j $ [ k 6 c                           ",
"                          l a ; = 6 c                           ",
"                          m n o b 6 c _                         ",
"                            p { b 6 c + q                       ",
"                        # c r ; b 6 c k s t u                   ",
"                  v w x y ' z y A j c e * B C D E               ",
"            F G H I J K L M N O o P c Q o a R B ^ S T           ",
"        U V W S X Y Z `  .M ..+.@.q #.$.%.&.*.i =./ , -.        ",
"      _ a , ;., >.,.'.).!.s ~.;.g h 0 {.} b $ ].' =.] y _       ",
"      _ ^./.S (.a = _.:.=.<.<.<.^ B $ { n [.* }.|.1.t 2._       ",
"      _ W = 3.4.[.;.^ & % % (.(.% % ;.B [ { -.5.6.N 7.p _       ",
"      _ :.W ^.8.|.g =.% ;.& ^ ^ s <.A 9.0.a.b.P -.h O < _       ",
"      _ b.= 3.&.c.} 2.a > ^ , ] = 6 0 e k | 0.{.-.O 7.d._       ",
"        e.f.1.5 c.} 2.y f g.O 0 h.d.0 e k | 0.-.-.i.j.k.        ",
"          l.m.n.< o.p.o g }.l 6 d.6 0 e q.e ) m r.              ",
"              s.t.9.y { ..u.0 l 4 l v.0 @ w.x.                  ",
"                  y.r = z.R e l d.r G A.                        ",
"                    l.B.k C.D.E.F.G.                            ",
"                        8 ! y.(                                 ",
"                                                                ",
"                                                                ",
"                                                                "};
